<svg width="150" height="58" viewBox="0 0 150 58" fill="none" xmlns="http://www.w3.org/2000/svg">
<path d="M65.15 8.556C66.778 8.556 68.2007 8.87867 69.418 9.524C70.6353 10.1693 71.574 11.0787 72.234 12.252C72.9087 13.4107 73.246 14.7527 73.246 16.278C73.246 17.7887 72.9087 19.1307 72.234 20.304C71.574 21.4773 70.628 22.3867 69.396 23.032C68.1787 23.6773 66.7633 24 65.15 24H59.364V8.556H65.15ZM64.908 20.744C66.3307 20.744 67.438 20.3553 68.23 19.578C69.022 18.8007 69.418 17.7007 69.418 16.278C69.418 14.8553 69.022 13.748 68.23 12.956C67.438 12.164 66.3307 11.768 64.908 11.768H63.126V20.744H64.908ZM81.3764 24.176C80.1737 24.176 79.0884 23.9193 78.1204 23.406C77.167 22.8927 76.4117 22.1593 75.8544 21.206C75.3117 20.2527 75.0404 19.138 75.0404 17.862C75.0404 16.6007 75.319 15.4933 75.8764 14.54C76.4337 13.572 77.1964 12.8313 78.1644 12.318C79.1324 11.8047 80.2177 11.548 81.4204 11.548C82.623 11.548 83.7084 11.8047 84.6764 12.318C85.6444 12.8313 86.407 13.572 86.9644 14.54C87.5217 15.4933 87.8004 16.6007 87.8004 17.862C87.8004 19.1233 87.5144 20.238 86.9424 21.206C86.385 22.1593 85.615 22.8927 84.6324 23.406C83.6644 23.9193 82.579 24.176 81.3764 24.176ZM81.3764 20.92C82.095 20.92 82.7037 20.656 83.2024 20.128C83.7157 19.6 83.9724 18.8447 83.9724 17.862C83.9724 16.8793 83.723 16.124 83.2244 15.596C82.7404 15.068 82.139 14.804 81.4204 14.804C80.687 14.804 80.0784 15.068 79.5944 15.596C79.1104 16.1093 78.8684 16.8647 78.8684 17.862C78.8684 18.8447 79.103 19.6 79.5724 20.128C80.0564 20.656 80.6577 20.92 81.3764 20.92ZM94.9002 11.548C95.7655 11.548 96.5209 11.724 97.1662 12.076C97.8262 12.428 98.3322 12.89 98.6842 13.462V11.724H102.446V23.978C102.446 25.1073 102.219 26.1267 101.764 27.036C101.324 27.96 100.642 28.6933 99.7182 29.236C98.8089 29.7787 97.6722 30.05 96.3082 30.05C94.4895 30.05 93.0155 29.6173 91.8862 28.752C90.7569 27.9013 90.1115 26.7427 89.9502 25.276H93.6682C93.7855 25.7453 94.0642 26.112 94.5042 26.376C94.9442 26.6547 95.4869 26.794 96.1322 26.794C96.9095 26.794 97.5255 26.5667 97.9802 26.112C98.4495 25.672 98.6842 24.9607 98.6842 23.978V22.24C98.3175 22.812 97.8115 23.2813 97.1662 23.648C96.5209 24 95.7655 24.176 94.9002 24.176C93.8882 24.176 92.9715 23.9193 92.1502 23.406C91.3289 22.878 90.6762 22.1373 90.1922 21.184C89.7229 20.216 89.4882 19.1013 89.4882 17.84C89.4882 16.5787 89.7229 15.4713 90.1922 14.518C90.6762 13.5647 91.3289 12.8313 92.1502 12.318C92.9715 11.8047 93.8882 11.548 94.9002 11.548ZM98.6842 17.862C98.6842 16.9233 98.4202 16.1827 97.8922 15.64C97.3789 15.0973 96.7482 14.826 96.0002 14.826C95.2522 14.826 94.6142 15.0973 94.0862 15.64C93.5729 16.168 93.3162 16.9013 93.3162 17.84C93.3162 18.7787 93.5729 19.5267 94.0862 20.084C94.6142 20.6267 95.2522 20.898 96.0002 20.898C96.7482 20.898 97.3789 20.6267 97.8922 20.084C98.4202 19.5413 98.6842 18.8007 98.6842 17.862ZM110.272 11.548C111.137 11.548 111.892 11.724 112.538 12.076C113.198 12.428 113.704 12.89 114.056 13.462V11.724H117.818V23.978C117.818 25.1073 117.59 26.1267 117.136 27.036C116.696 27.96 116.014 28.6933 115.09 29.236C114.18 29.7787 113.044 30.05 111.68 30.05C109.861 30.05 108.387 29.6173 107.258 28.752C106.128 27.9013 105.483 26.7427 105.322 25.276H109.04C109.157 25.7453 109.436 26.112 109.876 26.376C110.316 26.6547 110.858 26.794 111.504 26.794C112.281 26.794 112.897 26.5667 113.352 26.112C113.821 25.672 114.056 24.9607 114.056 23.978V22.24C113.689 22.812 113.183 23.2813 112.538 23.648C111.892 24 111.137 24.176 110.272 24.176C109.26 24.176 108.343 23.9193 107.522 23.406C106.7 22.878 106.048 22.1373 105.564 21.184C105.094 20.216 104.86 19.1013 104.86 17.84C104.86 16.5787 105.094 15.4713 105.564 14.518C106.048 13.5647 106.7 12.8313 107.522 12.318C108.343 11.8047 109.26 11.548 110.272 11.548ZM114.056 17.862C114.056 16.9233 113.792 16.1827 113.264 15.64C112.75 15.0973 112.12 14.826 111.372 14.826C110.624 14.826 109.986 15.0973 109.458 15.64C108.944 16.168 108.688 16.9013 108.688 17.84C108.688 18.7787 108.944 19.5267 109.458 20.084C109.986 20.6267 110.624 20.898 111.372 20.898C112.12 20.898 112.75 20.6267 113.264 20.084C113.792 19.5413 114.056 18.8007 114.056 17.862ZM126.567 24.176C125.365 24.176 124.279 23.9193 123.311 23.406C122.358 22.8927 121.603 22.1593 121.045 21.206C120.503 20.2527 120.231 19.138 120.231 17.862C120.231 16.6007 120.51 15.4933 121.067 14.54C121.625 13.572 122.387 12.8313 123.355 12.318C124.323 11.8047 125.409 11.548 126.611 11.548C127.814 11.548 128.899 11.8047 129.867 12.318C130.835 12.8313 131.598 13.572 132.155 14.54C132.713 15.4933 132.991 16.6007 132.991 17.862C132.991 19.1233 132.705 20.238 132.133 21.206C131.576 22.1593 130.806 22.8927 129.823 23.406C128.855 23.9193 127.77 24.176 126.567 24.176ZM126.567 20.92C127.286 20.92 127.895 20.656 128.393 20.128C128.907 19.6 129.163 18.8447 129.163 17.862C129.163 16.8793 128.914 16.124 128.415 15.596C127.931 15.068 127.33 14.804 126.611 14.804C125.878 14.804 125.269 15.068 124.785 15.596C124.301 16.1093 124.059 16.8647 124.059 17.862C124.059 18.8447 124.294 19.6 124.763 20.128C125.247 20.656 125.849 20.92 126.567 20.92Z" fill="#686868"/>
<path d="M58.726 41.256C58.726 39.7307 59.056 38.374 59.716 37.186C60.376 35.9833 61.2927 35.052 62.466 34.392C63.654 33.7173 64.996 33.38 66.492 33.38C68.3253 33.38 69.8947 33.864 71.2 34.832C72.5053 35.8 73.378 37.12 73.818 38.792H69.682C69.374 38.1467 68.934 37.6553 68.362 37.318C67.8047 36.9807 67.1667 36.812 66.448 36.812C65.2893 36.812 64.3507 37.2153 63.632 38.022C62.9133 38.8287 62.554 39.9067 62.554 41.256C62.554 42.6053 62.9133 43.6833 63.632 44.49C64.3507 45.2967 65.2893 45.7 66.448 45.7C67.1667 45.7 67.8047 45.5313 68.362 45.194C68.934 44.8567 69.374 44.3653 69.682 43.72H73.818C73.378 45.392 72.5053 46.712 71.2 47.68C69.8947 48.6333 68.3253 49.11 66.492 49.11C64.996 49.11 63.654 48.78 62.466 48.12C61.2927 47.4453 60.376 46.514 59.716 45.326C59.056 44.138 58.726 42.7813 58.726 41.256ZM75.8138 42.84C75.8138 41.5787 76.0485 40.4713 76.5178 39.518C77.0018 38.5647 77.6545 37.8313 78.4758 37.318C79.2971 36.8047 80.2138 36.548 81.2258 36.548C82.0911 36.548 82.8465 36.724 83.4918 37.076C84.1518 37.428 84.6578 37.89 85.0098 38.462V36.724H88.7718V49H85.0098V47.262C84.6431 47.834 84.1298 48.296 83.4698 48.648C82.8245 49 82.0691 49.176 81.2038 49.176C80.2065 49.176 79.2971 48.9193 78.4758 48.406C77.6545 47.878 77.0018 47.1373 76.5178 46.184C76.0485 45.216 75.8138 44.1013 75.8138 42.84ZM85.0098 42.862C85.0098 41.9233 84.7458 41.1827 84.2178 40.64C83.7045 40.0973 83.0738 39.826 82.3258 39.826C81.5778 39.826 80.9398 40.0973 80.4118 40.64C79.8985 41.168 79.6418 41.9013 79.6418 42.84C79.6418 43.7787 79.8985 44.5267 80.4118 45.084C80.9398 45.6267 81.5778 45.898 82.3258 45.898C83.0738 45.898 83.7045 45.6267 84.2178 45.084C84.7458 44.5413 85.0098 43.8007 85.0098 42.862ZM95.6955 38.77C96.1355 38.0953 96.6855 37.5673 97.3455 37.186C98.0055 36.79 98.7388 36.592 99.5455 36.592V40.574H98.5115C97.5728 40.574 96.8688 40.7793 96.3995 41.19C95.9301 41.586 95.6955 42.29 95.6955 43.302V49H91.9335V36.724H95.6955V38.77ZM113.356 42.664C113.356 43.016 113.334 43.3827 113.29 43.764H104.776C104.834 44.5267 105.076 45.1133 105.502 45.524C105.942 45.92 106.477 46.118 107.108 46.118C108.046 46.118 108.699 45.722 109.066 44.93H113.07C112.864 45.7367 112.49 46.4627 111.948 47.108C111.42 47.7533 110.752 48.2593 109.946 48.626C109.139 48.9927 108.237 49.176 107.24 49.176C106.037 49.176 104.966 48.9193 104.028 48.406C103.089 47.8927 102.356 47.1593 101.828 46.206C101.3 45.2527 101.036 44.138 101.036 42.862C101.036 41.586 101.292 40.4713 101.806 39.518C102.334 38.5647 103.067 37.8313 104.006 37.318C104.944 36.8047 106.022 36.548 107.24 36.548C108.428 36.548 109.484 36.7973 110.408 37.296C111.332 37.7947 112.05 38.506 112.564 39.43C113.092 40.354 113.356 41.432 113.356 42.664ZM109.506 41.674C109.506 41.0287 109.286 40.5153 108.846 40.134C108.406 39.7527 107.856 39.562 107.196 39.562C106.565 39.562 106.03 39.7453 105.59 40.112C105.164 40.4787 104.9 40.9993 104.798 41.674H109.506Z" fill="#686868"/>
<path d="M117.704 49.096C117.344 49.096 117.048 48.992 116.816 48.784C116.592 48.568 116.48 48.304 116.48 47.992C116.48 47.672 116.592 47.404 116.816 47.188C117.048 46.972 117.344 46.864 117.704 46.864C118.056 46.864 118.344 46.972 118.568 47.188C118.8 47.404 118.916 47.672 118.916 47.992C118.916 48.304 118.8 48.568 118.568 48.784C118.344 48.992 118.056 49.096 117.704 49.096ZM119.963 45.652C119.963 44.956 120.103 44.348 120.383 43.828C120.671 43.308 121.067 42.908 121.571 42.628C122.083 42.348 122.667 42.208 123.323 42.208C124.163 42.208 124.863 42.428 125.423 42.868C125.991 43.308 126.363 43.928 126.539 44.728H124.355C124.171 44.216 123.815 43.96 123.287 43.96C122.911 43.96 122.611 44.108 122.387 44.404C122.163 44.692 122.051 45.108 122.051 45.652C122.051 46.196 122.163 46.616 122.387 46.912C122.611 47.2 122.911 47.344 123.287 47.344C123.815 47.344 124.171 47.088 124.355 46.576H126.539C126.363 47.36 125.991 47.976 125.423 48.424C124.855 48.872 124.155 49.096 123.323 49.096C122.667 49.096 122.083 48.956 121.571 48.676C121.067 48.396 120.671 47.996 120.383 47.476C120.103 46.956 119.963 46.348 119.963 45.652ZM130.924 49.096C130.268 49.096 129.676 48.956 129.148 48.676C128.628 48.396 128.216 47.996 127.912 47.476C127.616 46.956 127.468 46.348 127.468 45.652C127.468 44.964 127.62 44.36 127.924 43.84C128.228 43.312 128.644 42.908 129.172 42.628C129.7 42.348 130.292 42.208 130.948 42.208C131.604 42.208 132.196 42.348 132.724 42.628C133.252 42.908 133.668 43.312 133.972 43.84C134.276 44.36 134.428 44.964 134.428 45.652C134.428 46.34 134.272 46.948 133.96 47.476C133.656 47.996 133.236 48.396 132.7 48.676C132.172 48.956 131.58 49.096 130.924 49.096ZM130.924 47.32C131.316 47.32 131.648 47.176 131.92 46.888C132.2 46.6 132.34 46.188 132.34 45.652C132.34 45.116 132.204 44.704 131.932 44.416C131.668 44.128 131.34 43.984 130.948 43.984C130.548 43.984 130.216 44.128 129.952 44.416C129.688 44.696 129.556 45.108 129.556 45.652C129.556 46.188 129.684 46.6 129.94 46.888C130.204 47.176 130.532 47.32 130.924 47.32ZM144.301 42.232C145.133 42.232 145.793 42.484 146.281 42.988C146.777 43.492 147.025 44.192 147.025 45.088V49H144.985V45.364C144.985 44.932 144.869 44.6 144.637 44.368C144.413 44.128 144.101 44.008 143.701 44.008C143.301 44.008 142.985 44.128 142.753 44.368C142.529 44.6 142.417 44.932 142.417 45.364V49H140.377V45.364C140.377 44.932 140.261 44.6 140.029 44.368C139.805 44.128 139.493 44.008 139.093 44.008C138.693 44.008 138.377 44.128 138.145 44.368C137.921 44.6 137.809 44.932 137.809 45.364V49H135.757V42.304H137.809V43.144C138.017 42.864 138.289 42.644 138.625 42.484C138.961 42.316 139.341 42.232 139.765 42.232C140.269 42.232 140.717 42.34 141.109 42.556C141.509 42.772 141.821 43.08 142.045 43.48C142.277 43.112 142.593 42.812 142.993 42.58C143.393 42.348 143.829 42.232 144.301 42.232Z" fill="#686868"/>
<path d="M43.5345 20.6172C43.0367 19.583 42.1901 18.8349 41.0899 18.4516C40.5821 18.2845 40.0638 18.1963 39.5244 18.1968C37.2293 18.1989 34.9036 19.8465 33.7206 22.3011C32.263 25.3471 33.1111 28.3123 35.6924 29.2264C36.2107 29.4033 36.7608 29.5013 37.3425 29.5008C39.6799 29.4987 42.0586 27.989 43.2523 25.7413C44.1502 24.0161 44.2547 22.1143 43.5345 20.6172Z" fill="#686868"/>
<path d="M10.3044 22.313C9.12875 19.8605 6.79026 18.2171 4.49515 18.2191C3.95575 18.2196 3.42698 18.3088 2.92999 18.4767C1.83029 18.862 0.995234 19.6116 0.488239 20.6467C-0.24056 22.1451 -0.13354 24.0566 0.777159 25.7604C1.97378 28.006 4.35449 29.5114 6.6919 29.5093C7.26303 29.5088 7.82353 29.4196 8.34166 29.232C10.9217 28.333 11.7659 25.3564 10.3044 22.313Z" fill="#686868"/>
<path d="M15.4024 21.9736C15.6139 21.9833 15.8254 21.9732 16.0369 21.9533C17.2743 21.8636 18.3951 21.3699 19.2723 20.5414C20.6886 19.2001 21.0784 17.1009 20.7807 14.9433C20.3235 11.623 18.0477 9.13208 14.9804 9.02639C14.9804 9.02639 14.5468 9.02677 14.3247 9.04668C12.971 9.15626 11.7445 9.68943 10.7827 10.6165C9.377 11.9578 8.70155 13.939 8.97799 15.9193C9.43518 19.21 12.2505 21.868 15.4024 21.9736Z" fill="#686868"/>
<path d="M22.0145 26.3614C14.685 26.3679 7.35115 35.9423 7.35627 43.7463C7.35779 46.0718 8.60705 47.9428 9.84501 48.7103C11.3687 49.6549 12.4371 50.0283 14.6582 50.0264C16.0755 50.0251 16.9426 49.778 17.6298 49.4226C18.9303 48.7613 20.3685 48.3954 21.8492 48.3941L22.2194 48.3937C23.7001 48.3924 25.1387 48.7656 26.4401 49.4147C27.1278 49.759 27.9952 50.0144 29.4125 50.0131C31.6441 50.0112 32.7121 49.6358 34.2239 48.6885C35.4503 47.9188 36.7077 46.0455 36.7061 43.7201C36.6904 35.9062 29.3441 26.3548 22.0145 26.3614Z" fill="#686868"/>
<path d="M27.9983 21.9325C28.2098 21.9521 28.4214 21.9519 28.6329 21.9517C31.7846 21.8405 34.6068 19.1873 35.0595 15.886C35.3331 13.8953 34.6549 11.9055 33.2474 10.5864C32.2737 9.6709 31.0994 9.14971 29.7456 9.05239C29.5234 9.03288 29.0369 9.03331 29.0369 9.03331C25.9804 9.14443 23.708 11.6099 23.2449 14.9408C22.9501 17.099 23.3428 19.2073 24.761 20.5362C25.6499 21.3533 26.7714 21.8351 27.9983 21.9325Z" fill="#686868"/>
</svg>
