<svg width="90" height="90" viewBox="0 0 90 90" fill="none" xmlns="http://www.w3.org/2000/svg">
<rect width="90" height="90" rx="8" fill="#E1902B"/>
<path d="M53.2142 53.3799H57.5713V72.0006H53.2142V53.3799ZM18.3571 58.9661H22.7142V72.0006H18.3571V58.9661Z" fill="white"/>
<path d="M44.5 72H40.1429V64.5517C40.1423 64.058 39.9126 63.5847 39.5041 63.2356C39.0957 62.8865 38.5419 62.6902 37.9643 62.6897H33.6071V72H29.25V58.9655H37.9643C39.6971 58.967 41.3585 59.556 42.5838 60.6033C43.8091 61.6506 44.4983 63.0706 44.5 64.5517V72ZM25.9821 57.1035C23.9606 57.1015 22.0225 56.4142 20.593 55.1924C19.1635 53.9706 18.3594 52.3141 18.3571 50.5862V47.7931H14V44.069H22.7143V50.5862C22.7143 51.327 23.0586 52.0374 23.6714 52.5612C24.2843 53.0851 25.1155 53.3793 25.9821 53.3793C26.8488 53.3793 27.68 53.0851 28.2929 52.5612C28.9057 52.0374 29.25 51.327 29.25 50.5862V44.069H37.9643V47.7931H33.6071V50.5862C33.6048 52.3141 32.8007 53.9706 31.3713 55.1924C29.9418 56.4142 28.0037 57.1015 25.9821 57.1035ZM68.4643 34.7586H56.1641C54.8567 34.7549 53.5783 35.088 52.4956 35.7144C51.4129 36.3409 50.5762 37.2316 50.0946 38.2705L46.9531 44.9833L39.095 53.3812L42.4979 55.7088L50.5586 47.0948L54.1424 39.654C54.3026 39.3077 54.5812 39.0108 54.9419 38.8019C55.3025 38.5929 55.7284 38.4817 56.1641 38.4828H68.4643C69.0421 38.4828 69.5962 38.679 70.0048 39.0282C70.4133 39.3774 70.6429 39.851 70.6429 40.3448V53.3793H64.1071V72H68.4643V57.1035H70.6429C71.7981 57.1025 72.9057 56.7098 73.7226 56.0116C74.5394 55.3134 74.9988 54.3667 75 53.3793V40.3448C74.9983 38.8637 74.3091 37.4437 73.0838 36.3964C71.8585 35.3491 70.1971 34.7601 68.4643 34.7586ZM61.9286 32.8966C60.205 32.8966 58.5202 32.4597 57.0872 31.6413C55.6541 30.8229 54.5372 29.6596 53.8776 28.2986C53.2181 26.9376 53.0455 25.44 53.3817 23.9952C53.718 22.5504 54.5479 21.2232 55.7666 20.1816C56.9854 19.1399 58.5381 18.4305 60.2285 18.1431C61.9189 17.8557 63.6711 18.0032 65.2634 18.567C66.8557 19.1307 68.2167 20.0854 69.1742 21.3102C70.1318 22.5351 70.6429 23.9752 70.6429 25.4483C70.64 27.4229 69.7209 29.316 68.0873 30.7123C66.4537 32.1086 64.2389 32.8941 61.9286 32.8966ZM61.9286 21.7241C61.0668 21.7241 60.2244 21.9426 59.5079 22.3518C58.7913 22.761 58.2329 23.3426 57.9031 24.0231C57.5733 24.7036 57.487 25.4524 57.6552 26.1748C57.8233 26.8972 58.2383 27.5608 58.8476 28.0816C59.457 28.6025 60.2333 28.9572 61.0785 29.1009C61.9237 29.2446 62.7998 29.1708 63.596 28.8889C64.3921 28.6071 65.0726 28.1297 65.5514 27.5173C66.0302 26.9049 66.2857 26.1848 66.2857 25.4483C66.2846 24.4609 65.8251 23.5142 65.0083 22.816C64.1914 22.1178 63.0838 21.7251 61.9286 21.7241Z" fill="white"/>
</svg>
