<svg width="90" height="90" viewBox="0 0 90 90" fill="none" xmlns="http://www.w3.org/2000/svg">
<rect width="90" height="90" rx="8" fill="#E1902B"/>
<path d="M55.0013 21C53.6814 21 51.7456 21.2909 50.0817 22.2066C48.3218 23.1805 47.0019 24.7883 47.0019 27.125V30.9623C47.0156 31.4973 47.2324 32.0176 47.6258 32.4599C48.0018 32.8611 48.6498 33.2561 49.9977 33.2561C51.3456 33.2561 51.9935 32.8611 52.3695 32.4599C52.7636 32.0179 52.9804 31.4974 52.9935 30.9623C52.9935 30.5562 53.2042 30.1667 53.5792 29.8796C53.9543 29.5924 54.4629 29.4311 54.9933 29.4311C55.5237 29.4311 56.0324 29.5924 56.4075 29.8796C56.7825 30.1667 56.9932 30.5562 56.9932 30.9623C56.9932 31.8474 56.6652 33.1367 55.6173 34.2484C54.4974 35.4428 52.6495 36.3186 49.9977 36.3186C48.7178 36.3186 47.6178 36.1134 46.7019 35.7674C46.1299 39.1729 44.462 43.7482 39.5864 47.4784C35.2427 50.8073 33.1108 54.9294 32.0629 58.1451C31.5037 59.8683 31.1556 61.6276 31.0229 63.4003C31.0159 63.5126 31.0105 63.6249 31.0069 63.7372V63.8321L31.0029 63.8628V63.875C31.0029 63.8903 31.0029 63.9209 30.9949 63.9638C30.9478 64.4937 30.7671 65.0116 30.463 65.4889C30.2165 65.8871 29.837 66.2283 29.363 66.4781C28.8831 66.7231 28.1551 66.9375 27.0032 66.9375C25.3243 66.9375 23.6879 66.533 22.3258 65.7814C20.9638 65.0297 19.9452 63.969 19.4142 62.7494C18.8833 61.5298 18.867 60.2133 19.3676 58.9862C19.8682 57.7592 20.8604 56.6838 22.2035 55.9125C22.4136 55.7916 22.5906 55.6403 22.7243 55.4671C22.858 55.2939 22.9458 55.1022 22.9828 54.903C23.0197 54.7038 23.0051 54.5009 22.9397 54.3061C22.8742 54.1112 22.7593 53.9281 22.6015 53.7672C22.4437 53.6063 22.246 53.4709 22.0198 53.3685C21.7935 53.2661 21.5432 53.1989 21.283 53.1706C21.0228 53.1423 20.7579 53.1535 20.5034 53.2036C20.2489 53.2537 20.0098 53.3416 19.7997 53.4625C17.7847 54.6196 16.2963 56.2329 15.5455 58.0738C14.7947 59.9147 14.8195 61.8898 15.6164 63.7193C16.4133 65.5488 17.9419 67.1399 19.9856 68.2671C22.0293 69.3944 24.4844 70.0006 27.0032 70H59.0011V68.4688C59.0011 67.2284 58.2491 65.2654 56.0693 64.3895C55.1173 64.0277 54.0637 63.851 53.0015 63.875H49.0017C48.4713 63.875 47.9627 63.7137 47.5876 63.4265C47.2126 63.1393 47.0019 62.7499 47.0019 62.3438C47.0019 61.9376 47.2126 61.5482 47.5876 61.261C47.9627 60.9738 48.4713 60.8125 49.0017 60.8125H53.0015C53.7054 60.8125 54.3694 60.8554 55.0013 60.935V53.1562C55.0013 52.7501 55.212 52.3607 55.5871 52.0735C55.9621 51.7863 56.4708 51.625 57.0012 51.625C57.5316 51.625 58.0403 51.7863 58.4153 52.0735C58.7904 52.3607 59.0011 52.7501 59.0011 53.1562V62.1845C62.1609 63.9301 63.0008 66.8334 63.0008 68.4688V70H73.0001C73.5305 70 74.0392 69.8387 74.4143 69.5515C74.7893 69.2643 75 68.8749 75 68.4688C75 65.8044 73.8161 63.8046 71.7802 62.5061C70.4042 61.657 68.7516 61.1117 67.0005 60.9289V36.3125H69.0004C70.5916 36.3125 72.1176 35.8285 73.2428 34.967C74.3679 34.1055 75 32.9371 75 31.7188V27.9917C74.9999 27.4632 74.8212 26.9438 74.4812 26.4839C74.1413 26.024 73.6517 25.6393 73.0601 25.3671L65.9286 22.0902C64.3747 21.3767 62.5968 20.9999 60.7849 21H55.0013Z" fill="white"/>
</svg>
