<svg width="28" height="28" viewBox="0 0 28 28" fill="none" xmlns="http://www.w3.org/2000/svg">
<path d="M14 0C21.7319 0 28 6.26801 28 14C28 16.991 27.0621 19.7627 25.4645 22.0374L21 14H25.2C25.2 7.81441 20.1856 2.8 14 2.8C7.81441 2.8 2.8 7.81441 2.8 14C2.8 20.1856 7.81441 25.2 14 25.2C17.0103 25.2 19.7432 24.0124 21.7557 22.0802L23.1531 24.5938C20.6987 26.7162 17.4993 28 14 28C6.26801 28 0 21.7319 0 14C0 6.26801 6.26801 0 14 0ZM14 7C16.3197 7 18.2 8.88041 18.2 11.2V12.6H19.6V19.6H8.4V12.6H9.8V11.2C9.8 8.88041 11.6803 7 14 7ZM16.8 15.4H11.2V16.8H16.8V15.4ZM14 9.8C13.2821 9.8 12.6903 10.3405 12.6094 11.0367L12.6 11.2V12.6H15.4V11.2C15.4 10.482 14.8596 9.89029 14.1632 9.80942L14 9.8Z" fill="#7700FF" fill-opacity="0.4"/>
</svg>
