<svg width="27" height="30" viewBox="0 0 27 30" fill="none" xmlns="http://www.w3.org/2000/svg">
<path d="M11 21.9339C7.33064 21.445 4.5 18.3031 4.5 14.5C4.5 10.3579 7.85786 7 12 7C16.1421 7 19.5 10.3579 19.5 14.5C19.5 18.3031 16.6694 21.445 13 21.9339V24H18V26H13V30H11V26H6V24H11V21.9339ZM12 20C15.0376 20 17.5 17.5376 17.5 14.5C17.5 11.4624 15.0376 9 12 9C8.96243 9 6.5 11.4624 6.5 14.5C6.5 17.5376 8.96243 20 12 20Z" fill="#FEA603" fill-opacity="0.6"/>
<path d="M16.2759 8.4229L19.657 4.75582L15.0708 4.94855L14.9827 2.95885L22.9833 2.62264L23.3358 10.5814L21.3357 10.6655L21.1336 6.10331L17.7525 9.7704C18.7723 10.9852 19.4144 12.5298 19.4898 14.2315C19.6724 18.3523 16.4622 21.834 12.3198 22.0081C8.1774 22.1821 4.67132 18.9827 4.48876 14.8619C4.30621 10.7411 7.51632 7.25942 11.6587 7.08534C13.3694 7.01345 14.9715 7.51687 16.2759 8.4229ZM12.2317 20.0184C15.2695 19.8907 17.6235 17.3375 17.4897 14.3156C17.3558 11.2936 14.7847 8.94737 11.7469 9.07503C8.70911 9.20269 6.35503 11.7559 6.4889 14.7778C6.62278 17.7998 9.1939 20.146 12.2317 20.0184Z" fill="#FEA603" fill-opacity="0.6"/>
</svg>
