<svg width="92" height="92" viewBox="0 0 92 92" fill="none" xmlns="http://www.w3.org/2000/svg">
<rect x="1" y="1" width="90" height="90" rx="8" fill="#FBF0C2"/>
<rect x="1" y="1" width="90" height="90" rx="8" stroke="#FFC800" stroke-linecap="round" stroke-linejoin="round" stroke-dasharray="2 4"/>
<mask id="mask0_122_190" style="mask-type:alpha" maskUnits="userSpaceOnUse" x="34" y="34" width="24" height="24">
<rect x="34" y="34" width="24" height="24" fill="#D9D9D9"/>
</mask>
<g mask="url(#mask0_122_190)">
<path d="M44.2857 47.7143H35.7143C35.2286 47.7143 34.8214 47.55 34.4929 47.2214C34.1643 46.8929 34 46.4857 34 46C34 45.5143 34.1643 45.1071 34.4929 44.7786C34.8214 44.45 35.2286 44.2857 35.7143 44.2857H44.2857V35.7143C44.2857 35.2286 44.45 34.8214 44.7786 34.4929C45.1071 34.1643 45.5143 34 46 34C46.4857 34 46.8929 34.1643 47.2214 34.4929C47.55 34.8214 47.7143 35.2286 47.7143 35.7143V44.2857H56.2857C56.7714 44.2857 57.1786 44.45 57.5071 44.7786C57.8357 45.1071 58 45.5143 58 46C58 46.4857 57.8357 46.8929 57.5071 47.2214C57.1786 47.55 56.7714 47.7143 56.2857 47.7143H47.7143V56.2857C47.7143 56.7714 47.55 57.1786 47.2214 57.5071C46.8929 57.8357 46.4857 58 46 58C45.5143 58 45.1071 57.8357 44.7786 57.5071C44.45 57.1786 44.2857 56.7714 44.2857 56.2857V47.7143Z" fill="#FFC800"/>
</g>
</svg>
