<svg width="70" height="67" viewBox="0 0 70 67" fill="none" xmlns="http://www.w3.org/2000/svg">
<ellipse cx="35" cy="33.5" rx="35" ry="33.5" fill="white"/>
<ellipse cx="35.5" cy="33.5" rx="28.5" ry="26.5" fill="#0064D6"/>
<path d="M30.625 19.625H40.375L43.625 22.7083H50.125C51.0225 22.7083 51.75 23.3986 51.75 24.25V45.8333C51.75 46.6848 51.0225 47.375 50.125 47.375H20.875C19.9775 47.375 19.25 46.6848 19.25 45.8333V24.25C19.25 23.3986 19.9775 22.7083 20.875 22.7083H27.375L30.625 19.625ZM35.5 44.2917C40.8848 44.2917 45.25 40.1503 45.25 35.0417C45.25 29.933 40.8848 25.7917 35.5 25.7917C30.1152 25.7917 25.75 29.933 25.75 35.0417C25.75 40.1503 30.1152 44.2917 35.5 44.2917ZM35.5 41.2083C31.9101 41.2083 29 38.4474 29 35.0417C29 31.636 31.9101 28.875 35.5 28.875C39.0898 28.875 42 31.636 42 35.0417C42 38.4474 39.0898 41.2083 35.5 41.2083Z" fill="white"/>
</svg>
