<svg width="30" height="18" viewBox="0 0 30 18" fill="none" xmlns="http://www.w3.org/2000/svg">
<path d="M16.2505 10.5C15.6014 14.7565 12.2359 18 8.18182 18C3.66312 18 0 13.9705 0 9C0 4.02944 3.66312 0 8.18182 0C12.2359 0 15.6014 3.24344 16.2505 7.5H30V10.5H27.2727V16.5H24.5455V10.5H21.8182V16.5H19.0909V10.5H16.2505ZM8.18182 15C11.1943 15 13.6364 12.3137 13.6364 9C13.6364 5.68629 11.1943 3 8.18182 3C5.16935 3 2.72727 5.68629 2.72727 9C2.72727 12.3137 5.16935 15 8.18182 15Z" fill="#7700FF" fill-opacity="0.4"/>
</svg>
