<svg width="20" height="25" viewBox="0 0 20 25" fill="none" xmlns="http://www.w3.org/2000/svg">
<path d="M20 25H17.5V22.619C17.5 20.6465 15.8211 19.0476 13.75 19.0476H6.25C4.17894 19.0476 2.5 20.6465 2.5 22.619V25H0V22.619C0 19.3317 2.79822 16.6667 6.25 16.6667H13.75C17.2017 16.6667 20 19.3317 20 22.619V25ZM10 14.2857C5.85786 14.2857 2.5 11.0877 2.5 7.14286C2.5 3.19796 5.85786 0 10 0C14.1421 0 17.5 3.19796 17.5 7.14286C17.5 11.0877 14.1421 14.2857 10 14.2857ZM10 11.9048C12.7614 11.9048 15 9.77279 15 7.14286C15 4.51293 12.7614 2.38095 10 2.38095C7.23857 2.38095 5 4.51293 5 7.14286C5 9.77279 7.23857 11.9048 10 11.9048Z" fill="#7700FF" fill-opacity="0.4"/>
</svg>
