<svg width="58" height="52" viewBox="0 0 58 52" fill="none" xmlns="http://www.w3.org/2000/svg">
<path d="M13.5372 20.9746C12.9398 21.6136 13.3929 22.6575 14.2676 22.6575H57C57.5523 22.6575 58 23.1052 58 23.6575V28.3429C58 28.8952 57.5523 29.3429 57 29.3429H14.2677C13.3929 29.3429 12.9398 30.3868 13.5372 31.0258L28.0878 46.5898C28.4471 46.9742 28.4471 47.5713 28.0878 47.9557L25.0374 51.2186C24.6421 51.6414 23.9716 51.6414 23.5764 51.2186L0.638453 26.6831C0.279106 26.2987 0.279104 25.7017 0.638447 25.3173L23.5764 0.781386C23.9716 0.358611 24.6421 0.358611 25.0374 0.781387L28.0878 4.04435C28.4472 4.42873 28.4472 5.02581 28.0878 5.41019L13.5372 20.9746Z" fill="white"/>
</svg>
