<svg width="24" height="24" viewBox="0 0 24 24" fill="none" xmlns="http://www.w3.org/2000/svg">
<path d="M8.48741 10.2428C9.736 12.4384 11.5616 14.264 13.7572 15.5125L14.9365 13.8615C15.3287 13.3127 16.0688 13.1431 16.6608 13.4664C18.5365 14.4911 20.6095 15.1137 22.7719 15.2849C23.4653 15.3399 24 15.9185 24 16.6141V22.5645C24 23.2481 23.4829 23.8209 22.8029 23.8908C22.0964 23.9635 21.3836 24 20.6667 24C9.25279 24 0 14.7472 0 3.33333C0 2.61636 0.0365601 1.90361 0.109187 1.19701C0.179067 0.517 0.75192 0 1.43553 0H7.38589C8.08147 0 8.66017 0.53472 8.71507 1.22812C8.88623 3.39051 9.50893 5.46352 10.5336 7.33925C10.8569 7.9312 10.6873 8.67139 10.1385 9.06343L8.48741 10.2428ZM5.12567 9.36693L7.65893 7.55745C6.94063 6.00685 6.44837 4.36244 6.19636 2.66667H2.67876C2.67071 2.88843 2.66667 3.11067 2.66667 3.33333C2.66667 13.2744 10.7256 21.3333 20.6667 21.3333C20.8893 21.3333 21.1116 21.3293 21.3333 21.3212V17.8036C19.6376 17.5516 17.9932 17.0593 16.4425 16.3411L14.6331 18.8744C13.9011 18.59 13.1941 18.2553 12.5165 17.8748L12.4391 17.8307C9.82627 16.3449 7.65512 14.1737 6.16933 11.5609L6.12525 11.4835C5.74465 10.8059 5.41005 10.0989 5.12567 9.36693Z" fill="#FEA603" fill-opacity="0.6"/>
</svg>
