<svg width="90" height="90" viewBox="0 0 90 90" fill="none" xmlns="http://www.w3.org/2000/svg">
<rect width="90" height="90" rx="8" fill="#B85000"/>
<path d="M66.2732 24.726H55.1904C53.1878 24.7308 53.2627 26.9538 55.1904 26.9407H66.2732V28.0772H55.1904C53.1989 28.0641 53.2723 30.286 55.1904 30.2919H66.2732V31.4533H55.1904C53.1989 31.4533 53.2723 33.6739 55.1904 33.668H66.2732V34.7747H55.1904C53.2404 34.7854 53.2723 37.0084 55.1904 37.0156H66.2732V38.1247H55.1904C53.2404 38.12 53.2324 40.3394 55.1904 40.3394H66.2732V41.4462H55.1904C53.2404 41.4509 53.2324 43.6727 55.1904 43.6621H66.2732V44.7961H55.1904C53.2404 44.7831 53.2324 47.0025 55.1904 47.0108H66.2732V48.1152H55.1904C53.2404 48.114 53.2723 50.3382 55.1904 50.3311H66.2732V71.8951C66.2795 75.1809 72.9809 75.1215 73 71.8951V21.4319C72.9809 19.9309 71.3259 18.0333 68.6026 18.0273H55.1904C53.1878 18.0285 53.2627 20.2515 55.1904 20.242L66.2732 20.2693V21.3737H55.1904C53.191 21.3666 53.2659 23.5884 55.1904 23.5896H66.2732V24.726ZM54.4282 62.9567C54.4219 59.121 49.0838 54.9956 42.7061 57.6675V42.997L38.5813 18.8016C38.4952 18.1615 37.7666 18.0107 37.2771 18C36.7717 18.0107 35.7592 18.1615 35.6492 18.8016L31.5452 42.997V57.6675C25.1675 54.9956 20.0016 59.1472 20 62.927C20.0016 66.29 23.4774 69.0522 28.181 69.0439C32.9196 69.0522 36.3284 65.9563 36.3284 62.927V47.6877H37.9228V62.927C37.9228 66.3185 41.4497 68.8289 45.3688 68.988C45.3034 70.8477 46.1181 73.5006 47.652 74.5527C49.4505 75.7877 51.5918 74.2083 50.7132 72.9223C49.865 71.7252 49.0327 71.0163 49.7088 68.4026C52.5341 67.4288 54.4219 65.3792 54.4282 62.9567ZM28.3627 65.9741C27.2876 65.9741 26.2565 65.656 25.4962 65.0898C24.736 64.5236 24.3089 63.7557 24.3089 62.9549C24.3089 62.1542 24.736 61.3862 25.4962 60.82C26.2565 60.2538 27.2876 59.9357 28.3627 59.9357C30.5726 59.9452 32.3727 61.2954 32.3886 62.9567C32.3841 63.7526 31.9593 64.5153 31.206 65.0799C30.4527 65.6445 29.4314 65.9657 28.3627 65.9741ZM42.0285 62.9567C42.0322 62.16 42.4568 61.3964 43.2105 60.8311C43.9642 60.2657 44.9863 59.9441 46.056 59.9357C47.1259 59.9429 48.1489 60.2642 48.9027 60.8298C49.6565 61.3954 50.0802 62.1597 50.0819 62.9567C50.0802 63.7533 49.6563 64.5172 48.9024 65.0823C48.1485 65.6474 47.1255 65.9679 46.056 65.9741C44.9866 65.967 43.9642 65.6462 43.2103 65.0813C42.4564 64.5165 42.0318 63.7531 42.0285 62.9567Z" fill="white"/>
</svg>
